<?xml version="1.0" encoding="UTF-8" standalone="no"?>
<svg
   xmlns:dc="http://purl.org/dc/elements/1.1/"
   xmlns:cc="http://creativecommons.org/ns#"
   xmlns:rdf="http://www.w3.org/1999/02/22-rdf-syntax-ns#"
   xmlns:svg="http://www.w3.org/2000/svg"
   xmlns="http://www.w3.org/2000/svg"
   viewBox="0 0 1118.6667 1049.3333"
   height="524.66665"
   width="559.33335"
   xml:space="preserve"
   id="svg2"
   version="1.1"><metadata
     id="metadata8"><rdf:RDF><cc:Work
         rdf:about=""><dc:format>image/svg+xml</dc:format><dc:type
           rdf:resource="http://purl.org/dc/dcmitype/StillImage" /></cc:Work></rdf:RDF></metadata><defs
     id="defs6"><clipPath
       id="clipPath20"
       clipPathUnits="userSpaceOnUse"><path
         id="path18"
         d="M 0,6 V 7864 H 8385 V 6 Z" /></clipPath></defs><g
     transform="matrix(1.3333333,0,0,-1.3333333,0,1049.3333)"
     id="g10"><g
       transform="scale(0.1)"
       id="g12"><g
         id="g14"><g
           clip-path="url(#clipPath20)"
           id="g16"><path
             id="path22"
             style="fill:#e3c729;fill-opacity:1;fill-rule:evenodd;stroke:none"
             d="m 4230.04,136.211 392.37,20.562 388.08,61.465 379.52,101.692 366.82,140.808 350.08,178.379 329.53,213.996 305.35,247.267 277.83,277.83 247.27,305.35 213.99,329.53 178.38,350.08 140.81,366.82 101.69,379.52 61.47,388.08 20.56,392.37 -20.56,392.38 -61.47,388.07 -101.69,379.52 -140.81,366.82 -178.38,350.09 -213.99,329.52 -247.27,305.35 -277.83,277.83 -305.35,247.27 -329.53,213.99 -350.08,178.38 -366.82,140.81 -379.52,101.69 -388.08,61.47 -392.37,20.56 -392.37,-20.56 -388.08,-61.47 L 3070.07,7459.99 2703.25,7319.18 2353.16,7140.8 2023.64,6926.81 1718.29,6679.54 1440.46,6401.71 1193.19,6096.36 979.199,5766.84 800.82,5416.75 660.012,5049.93 558.32,4670.41 l -61.465,-388.07 -20.566,-392.38 20.566,-392.37 61.465,-388.08 101.692,-379.52 140.808,-366.82 178.379,-350.08 213.991,-329.53 247.27,-305.35 277.83,-277.83 305.35,-247.267 329.52,-213.996 350.09,-178.379 366.82,-140.808 379.52,-101.692 388.08,-61.465 392.37,-20.562 v 0" /><path
             id="path24"
             style="fill:none;stroke:#e3c729;stroke-width:20.02000046;stroke-linecap:round;stroke-linejoin:round;stroke-miterlimit:10;stroke-dasharray:none;stroke-opacity:1"
             d="m 4230.04,136.211 392.37,20.562 388.08,61.465 379.52,101.692 366.82,140.808 350.08,178.379 329.53,213.996 305.35,247.267 277.83,277.83 247.27,305.35 213.99,329.53 178.38,350.08 140.81,366.82 101.69,379.52 61.47,388.08 20.56,392.37 -20.56,392.38 -61.47,388.07 -101.69,379.52 -140.81,366.82 -178.38,350.09 -213.99,329.52 -247.27,305.35 -277.83,277.83 -305.35,247.27 -329.53,213.99 -350.08,178.38 -366.82,140.81 -379.52,101.69 -388.08,61.47 -392.37,20.56 -392.37,-20.56 -388.08,-61.47 L 3070.07,7459.99 2703.25,7319.18 2353.16,7140.8 2023.64,6926.81 1718.29,6679.54 1440.46,6401.71 1193.19,6096.36 979.199,5766.84 800.82,5416.75 660.012,5049.93" /><path
             id="path26"
             style="fill:none;stroke:#e3c729;stroke-width:20.02000046;stroke-linecap:round;stroke-linejoin:round;stroke-miterlimit:10;stroke-dasharray:none;stroke-opacity:1"
             d="m 660.012,5049.93 -101.692,-379.52 -61.465,-388.07 -20.566,-392.38 20.566,-392.37 61.465,-388.08 101.692,-379.52 140.808,-366.82 178.379,-350.08 213.991,-329.53 247.27,-305.35 277.83,-277.83 305.35,-247.267 329.52,-213.996 350.09,-178.379 366.82,-140.808 379.52,-101.692 388.08,-61.465 392.37,-20.562" /><path
             id="path28"
             style="fill:none;stroke:#e62727;stroke-width:20.02000046;stroke-linecap:round;stroke-linejoin:round;stroke-miterlimit:10;stroke-dasharray:none;stroke-opacity:1"
             d="m 626.441,3389.46 70.782,70.78 -70.782,70.78 -70.781,-70.78 70.781,-70.78 v 141.56 l 70.782,70.78 -70.782,70.79 -70.781,-70.79 70.781,-70.78 v 141.57 l 70.782,70.78 -70.782,70.78 -70.781,-70.78 70.781,-70.78 v 141.56 l 70.782,70.78 -70.782,70.78 -70.781,-70.78 70.781,-70.78 v 141.56 l 70.782,70.78 -70.782,70.78 -70.781,-70.78 70.781,-70.78 v 141.56 l 70.782,70.78 -70.782,70.79 -70.781,-70.79 70.781,-70.78 v 141.57 l 70.782,70.78 -70.782,70.78 -70.781,-70.78 70.781,-70.78 v 141.56 l 70.782,70.78 -70.782,70.78 -70.781,-70.78 70.781,-70.78 v 141.56 l 70.782,70.78 -70.782,70.79" /><path
             id="path30"
             style="fill:none;stroke:#e62727;stroke-width:20.02000046;stroke-linecap:round;stroke-linejoin:round;stroke-miterlimit:10;stroke-dasharray:none;stroke-opacity:1"
             d="m 626.441,4663.53 -70.781,-70.79 70.781,-70.78 v 141.57 l 70.782,70.78 -70.782,70.78 -70.781,-70.78 70.781,-70.78 v 141.56 l 70.782,-70.78 70.781,70.78 -70.781,70.78 -70.782,-70.78 h 141.563 l 70.781,-70.78 70.781,70.78 -70.781,70.78 -70.781,-70.78 h 141.562 l 70.782,-70.78 70.782,70.78 -70.782,70.78 -70.782,-70.78 h 141.564 l 70.78,-70.78 70.78,70.78 -70.78,70.78 -70.78,-70.78 h 141.56 l 70.78,-70.78 70.78,70.78 -70.78,70.78 -70.78,-70.78 h 141.56 l -70.78,-70.78 70.78,-70.78 70.79,70.78 -70.79,70.78 v -141.56 l -70.78,-70.79 70.78,-70.78 70.79,70.78 -70.79,70.79" /><path
             id="path32"
             style="fill:none;stroke:#e62727;stroke-width:20.02000046;stroke-linecap:round;stroke-linejoin:round;stroke-miterlimit:10;stroke-dasharray:none;stroke-opacity:1"
             d="m 1334.25,4663.53 v -141.57 l -70.78,-70.78 70.78,-70.78 70.79,70.78 -70.79,70.78 V 4380.4 l -70.78,-70.78 70.78,-70.78 70.79,70.78 -70.79,70.78 v -141.56 l -70.78,-70.79 70.78,-70.78 70.79,70.78 -70.79,70.79 v -141.57 l -70.78,70.78 -70.78,-70.78 70.78,-70.78 70.78,70.78 h -141.56 l -70.78,70.78 -70.78,-70.78 70.78,-70.78 70.78,70.78 h -141.56 l -70.782,70.78 -70.782,-70.78 70.782,-70.78 70.782,70.78 H 909.566 l -70.781,70.78 -70.781,-70.78 70.781,-70.78 70.781,70.78 H 768.004 l -70.781,70.78 -70.782,-70.78 70.782,-70.78 70.781,70.78 H 626.441" /><path
             id="path34"
             style="fill:none;stroke:#e62727;stroke-width:20.02000046;stroke-linecap:round;stroke-linejoin:round;stroke-miterlimit:10;stroke-dasharray:none;stroke-opacity:1"
             d="m 2027.84,3389.46 70.78,70.78 -70.78,70.78 -70.78,-70.78 70.78,-70.78 v 141.56 l 70.78,70.78 -70.78,70.79 -70.78,-70.79 70.78,-70.78 v 141.57 l 70.78,70.78 -70.78,70.78 -70.78,-70.78 70.78,-70.78 v 141.56 l 70.78,70.78 -70.78,70.78 -70.78,-70.78 70.78,-70.78 v 141.56 l 70.78,70.78 -70.78,70.78 -70.78,-70.78 70.78,-70.78 v 141.56 l 17.38,98.58 -98.58,17.38 -17.38,-98.57 98.58,-17.39 -81.2,115.96 17.38,98.59 -98.57,17.38 -17.39,-98.58 98.58,-17.39 -81.19,115.97 17.38,98.58 -98.58,17.38 -17.38,-98.58 98.58,-17.38 -81.2,115.96 17.38,98.58 -98.58,17.38" /><path
             id="path36"
             style="fill:none;stroke:#e62727;stroke-width:20.02000046;stroke-linecap:round;stroke-linejoin:round;stroke-miterlimit:10;stroke-dasharray:none;stroke-opacity:1"
             d="m 1703.05,4561.12 -17.38,-98.58 98.58,-17.38 -81.2,115.96 17.38,98.58 -98.57,17.38 -17.39,-98.58 98.58,-17.38 -81.19,115.96 17.38,98.58 -98.58,17.38 -17.39,-98.58 98.59,-17.38 -81.2,115.96" /><path
             id="path38"
             style="fill:none;stroke:#e62727;stroke-width:20.02000046;stroke-linecap:round;stroke-linejoin:round;stroke-miterlimit:10;stroke-dasharray:none;stroke-opacity:1"
             d="m 2027.84,4097.27 98.58,17.39 -17.38,98.57 -98.58,-17.38 17.38,-98.58 81.2,115.96 98.58,17.39 -17.39,98.58 -98.57,-17.38 17.38,-98.59 81.19,115.97 98.58,17.38 -17.38,98.58 -98.58,-17.38 17.38,-98.58 81.2,115.96 98.58,17.38 -17.38,98.58 -98.58,-17.38 17.38,-98.58 81.2,115.96 98.58,17.38 -17.39,98.58 -98.57,-17.38 17.38,-98.58 81.19,115.96 98.59,17.38 -17.39,98.58 -98.57,-17.38 17.37,-98.58 81.2,115.96" /><path
             id="path40"
             style="fill:none;stroke:#e62727;stroke-width:20.02000046;stroke-linecap:round;stroke-linejoin:round;stroke-miterlimit:10;stroke-dasharray:none;stroke-opacity:1"
             d="m 3148.96,3389.46 -70.78,70.78 -70.78,-70.78 70.78,-70.78 70.78,70.78 H 3007.4 l -70.78,70.78 -70.78,-70.78 70.78,-70.78 70.78,70.78 h -141.56 l -70.79,70.78 -70.78,-70.78 70.78,-70.78 70.79,70.78 h -141.57 v 100.1 h -100.1 v -100.1 h 100.1 l -100.1,100.1 v 100.1 h -100.1 v -100.1 h 100.1 l -100.1,100.1 70.78,70.78 -70.78,70.78 -70.78,-70.78 70.78,-70.78 v 141.56 l 70.78,70.78 -70.78,70.79 -70.78,-70.79 70.78,-70.78 v 141.57 l 70.78,70.78 -70.78,70.78 -70.78,-70.78 70.78,-70.78 v 141.56 h 100.1 v 100.1" /><path
             id="path42"
             style="fill:none;stroke:#e62727;stroke-width:20.02000046;stroke-linecap:round;stroke-linejoin:round;stroke-miterlimit:10;stroke-dasharray:none;stroke-opacity:1"
             d="m 2624.17,4114.45 h -100.1 v -100.1 l 100.1,100.1 h 100.1 v 100.1 h -100.1 v -100.1 l 100.1,100.1 70.78,-70.78 70.79,70.78 -70.79,70.78 -70.78,-70.78 h 141.57 l 70.78,-70.78 70.78,70.78 -70.78,70.78 -70.78,-70.78 h 141.56 l 70.78,-70.78 70.78,70.78 -70.78,70.78 -70.78,-70.78 h 141.56 v -100.1 h 100.1 v 100.1 h -100.1 l 100.1,-100.1 v -100.1 h 100.1 v 100.1 h -100.1 l 100.1,-100.1 70.78,70.78 -70.78,70.78 -70.78,-70.78 70.78,-70.78 v 141.56 l 70.78,70.78 -70.78,70.78 -70.78,-70.78 70.78,-70.78" /><path
             id="path44"
             style="fill:none;stroke:#e62727;stroke-width:20.02000046;stroke-linecap:round;stroke-linejoin:round;stroke-miterlimit:10;stroke-dasharray:none;stroke-opacity:1"
             d="m 3349.16,4155.91 v 141.56 l -70.78,-70.78 70.78,-70.78 70.78,70.78 -70.78,70.78 v -141.56 l -70.78,-70.78 70.78,-70.78 70.78,70.78 -70.78,70.78 v -141.56 l -70.78,-70.78 70.78,-70.78 70.78,70.78 -70.78,70.78 v -141.56 l -70.78,-70.79 70.78,-70.78 70.78,70.78 -70.78,70.79 v -141.57 l -70.78,-70.78 70.78,-70.78 70.78,70.78 -70.78,70.78 v -141.56 h -100.1 v -100.1 h 100.1 v 100.1 l -100.1,-100.1 h -100.1 v -100.1 h 100.1 v 100.1 l -100.1,-100.1 h 100.1 v 100.1 h -100.1 v -100.1 l 100.1,100.1 h 100.1" /><path
             id="path46"
             style="fill:none;stroke:#e62727;stroke-width:20.02000046;stroke-linecap:round;stroke-linejoin:round;stroke-miterlimit:10;stroke-dasharray:none;stroke-opacity:1"
             d="m 3349.16,3489.56 v 100.1 h -100.1 v -100.1 l 100.1,100.1 -70.78,-70.78 70.78,-70.78 70.78,70.78 -70.78,70.78 V 3448.1 l -70.78,-70.78 70.78,-70.78 70.78,70.78 -70.78,70.78 v -141.56 l -70.78,-70.79 70.78,-70.78 70.78,70.78 -70.78,70.79 v -141.57 l -70.78,-70.78 70.78,-70.78 70.78,70.78 -70.78,70.78 v -141.56 l -70.78,-70.78 70.78,-70.78 70.78,70.78 -70.78,70.78 v -141.56 h -100.1 v -100.1 h 100.1 v 100.1 l -100.1,-100.1 h -100.1 v -100.11 h 100.1 v 100.11 l -100.1,-100.11 -70.78,70.79 -70.78,-70.79 70.78,-70.78" /><path
             id="path48"
             style="fill:none;stroke:#e62727;stroke-width:20.02000046;stroke-linecap:round;stroke-linejoin:round;stroke-miterlimit:10;stroke-dasharray:none;stroke-opacity:1"
             d="m 3078.18,2610.86 70.78,70.78 H 3007.4 l -70.78,70.79 -70.78,-70.79 70.78,-70.78 70.78,70.78 h -141.56 l -70.79,70.79 -70.78,-70.79 70.78,-70.78 70.79,70.78 h -141.57 v 100.11 h -100.1 v -100.11 h 100.1 l -100.1,100.11" /><path
             id="path50"
             style="fill:none;stroke:#e62727;stroke-width:20.02000046;stroke-linecap:round;stroke-linejoin:round;stroke-miterlimit:10;stroke-dasharray:none;stroke-opacity:1"
             d="m 3709.52,3389.46 70.78,70.78 -70.78,70.78 -70.78,-70.78 70.78,-70.78 v 141.56 l 70.78,70.78 -70.78,70.79 -70.78,-70.79 70.78,-70.78 v 141.57 l 70.78,70.78 -70.78,70.78 -70.78,-70.78 70.78,-70.78 v 141.56 l 70.78,70.78 -70.78,70.78 -70.78,-70.78 70.78,-70.78 v 141.56 l 70.78,70.78 -70.78,70.78 -70.78,-70.78 70.78,-70.78 v 141.56" /><path
             id="path52"
             style="fill:none;stroke:#e62727;stroke-width:20.02000046;stroke-linecap:round;stroke-linejoin:round;stroke-miterlimit:10;stroke-dasharray:none;stroke-opacity:1"
             d="m 3709.52,4297.47 70.78,70.78 -70.78,70.79 -70.78,-70.79 70.78,-70.78 v 141.57" /><path
             id="path54"
             style="fill:none;stroke:#e62727;stroke-width:20.02000046;stroke-linecap:round;stroke-linejoin:round;stroke-miterlimit:10;stroke-dasharray:none;stroke-opacity:1"
             d="m 4690.5,3389.46 -70.78,70.78 -70.78,-70.78 70.78,-70.78 70.78,70.78 h -141.56 l -70.78,70.78 -70.78,-70.78 70.78,-70.78 70.78,70.78 h -141.56 l -70.79,70.78 -70.78,-70.78 70.78,-70.78 70.79,70.78 h -141.57 v 100.1 h -100.1 v -100.1 h 100.1 l -100.1,100.1 v 100.1 h -100.1 v -100.1 h 100.1 l -100.1,100.1 70.78,70.78 -70.78,70.78 -70.78,-70.78 70.78,-70.78 v 141.56 l 70.78,70.78 -70.78,70.79 -70.78,-70.79 70.78,-70.78 v 141.57 l 70.78,70.78 -70.78,70.78 -70.78,-70.78 70.78,-70.78 v 141.56 h 100.1 v 100.1" /><path
             id="path56"
             style="fill:none;stroke:#e62727;stroke-width:20.02000046;stroke-linecap:round;stroke-linejoin:round;stroke-miterlimit:10;stroke-dasharray:none;stroke-opacity:1"
             d="m 4165.71,4114.45 h -100.1 v -100.1 l 100.1,100.1 h 100.1 v 100.1 h -100.1 v -100.1 l 100.1,100.1 70.78,-70.78 70.79,70.78 -70.79,70.78 -70.78,-70.78 h 141.57 l 70.78,-70.78 70.78,70.78 -70.78,70.78 -70.78,-70.78 h 141.56 l 70.78,-70.78 70.78,70.78 -70.78,70.78 -70.78,-70.78 h 141.56 v -100.1 h 100.1 v 100.1 h -100.1 l 100.1,-100.1 v -100.1 h 100.1 v 100.1 h -100.1 l 100.1,-100.1 70.78,70.78 -70.78,70.78 -70.78,-70.78 70.78,-70.78 v 141.56 l 70.78,70.78 -70.78,70.78 -70.78,-70.78 70.78,-70.78" /><path
             id="path58"
             style="fill:none;stroke:#e62727;stroke-width:20.02000046;stroke-linecap:round;stroke-linejoin:round;stroke-miterlimit:10;stroke-dasharray:none;stroke-opacity:1"
             d="m 4890.7,4155.91 v 141.56 l -70.78,-70.78 70.78,-70.78 70.78,70.78 -70.78,70.78 v -141.56 l -70.78,-70.78 70.78,-70.78 70.78,70.78 -70.78,70.78 v -141.56 l -70.78,-70.78 70.78,-70.78 70.78,70.78 -70.78,70.78 v -141.56 l -70.78,-70.79 70.78,-70.78 70.78,70.78 -70.78,70.79 v -141.57 l -70.78,-70.78 70.78,-70.78 70.78,70.78 -70.78,70.78 v -141.56 l -70.78,-70.78 70.78,-70.78 70.78,70.78 -70.78,70.78 V 3448.1 l -70.78,-70.78 70.78,-70.78 70.78,70.78 -70.78,70.78 v -141.56 l 70.78,70.78 -70.78,70.78 -70.78,-70.78 70.78,-70.78 v 141.56 l 70.78,70.78" /><path
             id="path60"
             style="fill:none;stroke:#e62727;stroke-width:20.02000046;stroke-linecap:round;stroke-linejoin:round;stroke-miterlimit:10;stroke-dasharray:none;stroke-opacity:1"
             d="m 4961.48,3518.88 -70.78,70.78 -70.78,-70.78 70.78,-70.78 v 141.56 h -100.1 v -100.1 h 100.1 v 100.1 l -100.1,-100.1 h -100.1 v -100.1 h 100.1 v 100.1 l -100.1,-100.1" /><path
             id="path62"
             style="fill:none;stroke:#e62727;stroke-width:20.02000046;stroke-linecap:round;stroke-linejoin:round;stroke-miterlimit:10;stroke-dasharray:none;stroke-opacity:1"
             d="m 5671.48,3389.46 -70.78,70.78 -70.78,-70.78 70.78,-70.78 70.78,70.78 h -141.56 v 100.1 h -100.1 v -100.1 h 100.1 l -100.1,100.1 70.78,70.78 -70.78,70.78 -70.78,-70.78 70.78,-70.78 v 141.56 l 70.78,70.78 -70.78,70.79 -70.78,-70.79 70.78,-70.78 v 141.57 l 70.78,70.78 -70.78,70.78 -70.78,-70.78 70.78,-70.78 v 141.56 l 70.78,70.78 -70.78,70.78 -70.78,-70.78 70.78,-70.78 v 141.56 l 70.78,70.78 -70.78,70.79 -70.78,-70.79 70.78,-70.78 v 141.57 l 70.78,70.78 -70.78,70.78 -70.78,-70.78 70.78,-70.78 v 141.56 l 70.78,70.78 -70.78,70.78" /><path
             id="path64"
             style="fill:none;stroke:#e62727;stroke-width:20.02000046;stroke-linecap:round;stroke-linejoin:round;stroke-miterlimit:10;stroke-dasharray:none;stroke-opacity:1"
             d="m 5429.82,4480.5 -70.78,-70.78 70.78,-70.78 v 141.56 l 70.78,70.78 -70.78,70.78 -70.78,-70.78 70.78,-70.78 v 141.56 l 70.78,70.78 -70.78,70.79 -70.78,-70.79 70.78,-70.78 v 141.57 l -70.78,-70.79 70.78,-70.78 70.78,70.78 -70.78,70.79 v -141.57 l -70.78,-70.78 70.78,-70.78 70.78,70.78 -70.78,70.78 V 4480.5 l -70.78,-70.78 70.78,-70.78 70.78,70.78 -70.78,70.78 v -141.56 l 70.78,-70.78 70.78,70.78 -70.78,70.78 -70.78,-70.78 h 141.56 l 70.78,-70.78 70.78,70.78 -70.78,70.78 -70.78,-70.78 h 141.56 l -70.78,70.78 -70.78,-70.78 70.78,-70.78 70.78,70.78" /><path
             id="path66"
             style="fill:none;stroke:#e62727;stroke-width:20.02000046;stroke-linecap:round;stroke-linejoin:round;stroke-miterlimit:10;stroke-dasharray:none;stroke-opacity:1"
             d="m 5712.94,4338.94 h -141.56 l -70.78,70.78 -70.78,-70.78 70.78,-70.78 70.78,70.78 h -141.56 l -70.78,70.78 -70.79,-70.78 70.79,-70.78 70.78,70.78 h -141.57 l -70.78,70.78 -70.78,-70.78 70.78,-70.78 70.78,70.78 h -141.56" /><path
             id="path68"
             style="fill:none;stroke:#e62727;stroke-width:20.02000046;stroke-linecap:round;stroke-linejoin:round;stroke-miterlimit:10;stroke-dasharray:none;stroke-opacity:1"
             d="m 6512.32,3389.46 -70.78,70.78 -70.78,-70.78 70.78,-70.78 70.78,70.78 h -141.56 l -70.78,70.78 -70.78,-70.78 70.78,-70.78 70.78,70.78 H 6229.2 l -70.79,70.78 -70.78,-70.78 70.78,-70.78 70.79,70.78 h -141.57 v 100.1 h -100.1 v -100.1 h 100.1 l -100.1,100.1 v 100.1 h -100.1 v -100.1 h 100.1 l -100.1,100.1 70.78,70.78 -70.78,70.78 -70.78,-70.78 70.78,-70.78 v 141.56 l 70.78,70.78 -70.78,70.79 -70.78,-70.79 70.78,-70.78 v 141.57 l 70.78,70.78 -70.78,70.78 -70.78,-70.78 70.78,-70.78 v 141.56 h 100.1 v 100.1" /><path
             id="path70"
             style="fill:none;stroke:#e62727;stroke-width:20.02000046;stroke-linecap:round;stroke-linejoin:round;stroke-miterlimit:10;stroke-dasharray:none;stroke-opacity:1"
             d="m 5987.53,4114.45 h -100.1 v -100.1 l 100.1,100.1 h 100.1 v 100.1 h -100.1 v -100.1 l 100.1,100.1 70.78,-70.78 70.79,70.78 -70.79,70.78 -70.78,-70.78 h 141.57 l 70.78,-70.78 70.78,70.78 -70.78,70.78 -70.78,-70.78 h 141.56 l 70.78,-70.78 70.78,70.78 -70.78,70.78 -70.78,-70.78 h 141.56 v -100.1 h 100.1 v 100.1 h -100.1 l 100.1,-100.1 v -100.1 h 100.1 v 100.1 h -100.1 l 100.1,-100.1 -70.78,-70.78 70.78,-70.78 70.78,70.78 -70.78,70.78 v -141.56 l -70.78,-70.79 70.78,-70.78 70.78,70.78 -70.78,70.79" /><path
             id="path72"
             style="fill:none;stroke:#e62727;stroke-width:20.02000046;stroke-linecap:round;stroke-linejoin:round;stroke-miterlimit:10;stroke-dasharray:none;stroke-opacity:1"
             d="m 6712.52,3872.79 v -141.57 l -70.78,-70.78 70.78,-70.78 70.78,70.78 -70.78,70.78 v -141.56 h -100.1 v -100.1 h 100.1 v 100.1 l -100.1,-100.1 h -100.1 v -100.1 h 100.1 v 100.1 l -100.1,-100.1" /><path
             id="path74"
             style="fill:none;stroke:#e62727;stroke-width:20.02000046;stroke-linecap:round;stroke-linejoin:round;stroke-miterlimit:10;stroke-dasharray:none;stroke-opacity:1"
             d="m 7213.02,3389.46 70.78,70.78 -70.78,70.78 -70.78,-70.78 70.78,-70.78 v 141.56 l 70.78,70.78 -70.78,70.79 -70.78,-70.79 70.78,-70.78 v 141.57 l 70.78,70.78 -70.78,70.78 -70.78,-70.78 70.78,-70.78 v 141.56 l 70.78,70.78 -70.78,70.78 -70.78,-70.78 70.78,-70.78 v 141.56 l 70.78,70.78 -70.78,70.78 -70.78,-70.78 70.78,-70.78 v 141.56 l 70.78,70.78 -70.78,70.79 -70.78,-70.79 70.78,-70.78 v 141.57 l -70.78,-70.79 70.78,-70.78 70.78,70.78 -70.78,70.79 v -141.57 h 100.1 v 100.11 h -100.1 v -100.11 l 100.1,100.11 70.78,-70.79 70.78,70.79" /><path
             id="path76"
             style="fill:none;stroke:#e62727;stroke-width:20.02000046;stroke-linecap:round;stroke-linejoin:round;stroke-miterlimit:10;stroke-dasharray:none;stroke-opacity:1"
             d="m 7454.68,4197.38 -70.78,70.78 -70.78,-70.78 h 141.56 l 70.78,-70.79 70.79,70.79 -70.79,70.78 -70.78,-70.78 h 141.57 v -100.11 h 100.1 v 100.11 h -100.1 l 100.1,-100.11" /></g></g></g></g></svg>